<?xml version="1.0" encoding="utf-8"?>
<!-- Generator: Adobe Illustrator 16.0.0, SVG Export Plug-In . SVG Version: 6.00 Build 0)  -->
<!DOCTYPE svg PUBLIC "-//W3C//DTD SVG 1.1//EN" "http://www.w3.org/Graphics/SVG/1.1/DTD/svg11.dtd">
<svg version="1.1" id="Capa_1" xmlns="http://www.w3.org/2000/svg" xmlns:xlink="http://www.w3.org/1999/xlink" x="0px" y="0px"
	 width="50px" height="50px" viewBox="0 0 50 50" enable-background="new 0 0 50 50" xml:space="preserve">
<g>
	<path fill="#FFFFFF" d="M4.859,9.184h3.218v3.825H4.859v24.668H7.97v3.517H4.859V50h37.458V0H4.859V9.184z M34.237,22.319
		l2.804,3.049c0.384,0.384,0.384,1.004-0.001,1.386h-2.235c-0.916,4.367-4.241,7.934-8.641,9.094
		c-1.007,0.267-2.034,0.397-3.048,0.397c-3.87,0-7.599-1.877-9.872-5.142l1.958-1.349c2.3,3.303,6.462,4.83,10.354,3.805
		c3.359-0.888,5.93-3.528,6.803-6.806h-2.323c-0.387-0.382-0.387-1.002,0-1.386l2.809-3.049
		C33.228,21.939,33.852,21.939,34.237,22.319z M9.034,22.39h2.607c0.946-4.325,4.251-7.847,8.618-9.002
		c4.871-1.281,10.055,0.629,12.925,4.749l-1.961,1.35c-2.297-3.305-6.456-4.837-10.352-3.808c-3.326,0.88-5.876,3.478-6.771,6.711
		h2.616c0.386,0.383,0.386,1.004,0,1.386l-3.348,2.939c-0.384,0.38-1.009,0.38-1.393,0l-2.941-2.939
		C8.648,23.396,8.648,22.773,9.034,22.39z"/>
	<rect x="1.52" y="9.445" fill="#FFFFFF" width="3.082" height="3.123"/>
	<rect x="1.52" y="37.779" fill="#FFFFFF" width="3.076" height="2.971"/>
	<rect x="45.598" y="6.297" fill="#FFFFFF" width="2.883" height="9.052"/>
	<rect x="45.598" y="34.632" fill="#FFFFFF" width="2.791" height="8.964"/>
	<rect x="45.598" y="18.891" fill="#FFFFFF" width="2.836" height="12.263"/>
</g>
</svg>
