<?xml version="1.0" encoding="utf-8"?>
<!-- Generator: Adobe Illustrator 16.0.0, SVG Export Plug-In . SVG Version: 6.00 Build 0)  -->
<!DOCTYPE svg PUBLIC "-//W3C//DTD SVG 1.1//EN" "http://www.w3.org/Graphics/SVG/1.1/DTD/svg11.dtd">
<svg version="1.1" id="Capa_1" xmlns="http://www.w3.org/2000/svg" xmlns:xlink="http://www.w3.org/1999/xlink" x="0px" y="0px"
	 width="24px" height="24px" viewBox="0 0 24 24" enable-background="new 0 0 24 24" xml:space="preserve">
<path fill="none" d="M0,0h24v24H0V0z"/>
<path fill="#FFFFFF" d="M6.5,5.5L12,11l7-7l-1-1l-6,6L7.5,4.5H11V3H5v6h1.5V5.5z M23.71,16.67C20.66,13.779,16.54,12,12,12
	s-8.66,1.779-11.71,4.67C0.11,16.85,0,17.1,0,17.38s0.11,0.53,0.29,0.71l2.48,2.48c0.18,0.18,0.43,0.289,0.71,0.289
	c0.27,0,0.52-0.109,0.7-0.279c0.79-0.74,1.69-1.359,2.66-1.85c0.33-0.16,0.56-0.5,0.56-0.9v-3.1C8.85,14.25,10.4,14,12,14
	c1.6,0,3.15,0.25,4.6,0.721v3.1c0,0.39,0.23,0.74,0.561,0.9c0.98,0.489,1.869,1.119,2.67,1.85c0.18,0.18,0.43,0.279,0.699,0.279
	c0.281,0,0.531-0.109,0.711-0.289l2.48-2.48c0.18-0.18,0.289-0.43,0.289-0.71S23.891,16.85,23.71,16.67L23.71,16.67z"/>
</svg>
