<?xml version="1.0" encoding="utf-8"?>
<!-- Generator: Adobe Illustrator 16.0.0, SVG Export Plug-In . SVG Version: 6.00 Build 0)  -->
<!DOCTYPE svg PUBLIC "-//W3C//DTD SVG 1.1//EN" "http://www.w3.org/Graphics/SVG/1.1/DTD/svg11.dtd">
<svg version="1.1" id="Capa_1" xmlns="http://www.w3.org/2000/svg" xmlns:xlink="http://www.w3.org/1999/xlink" x="0px" y="0px"
	 width="50px" height="50px" viewBox="0 0 50 50" enable-background="new 0 0 50 50" xml:space="preserve">
<title>1048</title>
<g>
	<path fill="#FFFFFF" d="M35.264,44.742l-10.26-10.26l-10.259,10.26c-4.187,4.188-7.337,7.834-12.332,2.845
		c-4.983-4.99-1.355-8.138,2.851-12.331l10.259-10.254L5.263,14.744C1.069,10.555-2.571,7.407,2.413,2.412
		c4.995-4.983,8.145-1.343,12.332,2.851l10.259,10.247l10.26-10.247c4.193-4.188,7.325-7.84,12.319-2.851
		c4.994,4.995,1.354,8.144-2.84,12.332L34.484,24.996l10.259,10.253c4.19,4.2,7.834,7.348,2.84,12.338
		C42.601,52.576,39.457,48.931,35.264,44.742L35.264,44.742z"/>
</g>
</svg>
