<?xml version="1.0" encoding="utf-8"?>
<!-- Generator: Adobe Illustrator 16.0.0, SVG Export Plug-In . SVG Version: 6.00 Build 0)  -->
<!DOCTYPE svg PUBLIC "-//W3C//DTD SVG 1.1//EN" "http://www.w3.org/Graphics/SVG/1.1/DTD/svg11.dtd">
<svg version="1.1" id="Capa_1" xmlns="http://www.w3.org/2000/svg" xmlns:xlink="http://www.w3.org/1999/xlink" x="0px" y="0px"
	 width="24px" height="24px" viewBox="0 0 24 24" enable-background="new 0 0 24 24" xml:space="preserve">
<path fill="none" d="M0,0h24v24H0V0z"/>
<path fill="#FFFFFF" d="M17,3h-2v7h2V3z M20,15.5c-1.25,0-2.45-0.2-3.57-0.57c-0.35-0.109-0.74-0.029-1.02,0.24l-2.2,2.2
	c-2.83-1.44-5.15-3.75-6.59-6.59l2.2-2.21c0.28-0.26,0.36-0.65,0.25-1C8.7,6.45,8.5,5.25,8.5,4c0-0.55-0.45-1-1-1H4
	C3.45,3,3,3.45,3,4c0,9.391,7.61,17,17,17c0.55,0,1-0.45,1-1v-3.5C21,15.95,20.55,15.5,20,15.5z M19,3v7h2V3H19z"/>
</svg>
