<?xml version="1.0" encoding="utf-8"?>
<!-- Generator: Adobe Illustrator 16.0.0, SVG Export Plug-In . SVG Version: 6.00 Build 0)  -->
<!DOCTYPE svg PUBLIC "-//W3C//DTD SVG 1.1//EN" "http://www.w3.org/Graphics/SVG/1.1/DTD/svg11.dtd">
<svg version="1.1" id="Capa_1" xmlns="http://www.w3.org/2000/svg" xmlns:xlink="http://www.w3.org/1999/xlink" x="0px" y="0px"
	 width="50px" height="50px" viewBox="0 0 50 50" enable-background="new 0 0 50 50" xml:space="preserve">
<g>
	<path fill="#FFFFFF" d="M43.922,37.081c-1.343-1.689-3.522-4.141-5.39-4.372c-1.136-0.142-2.441,0.8-3.728,1.688
		c-0.251,0.125-2.189,1.28-2.425,1.349c-1.242,0.354-3.894,0.458-5.496-1.004c-1.544-1.412-3.985-4.024-5.956-6.419
		c-1.882-2.465-3.856-5.43-4.866-7.249c-1.054-1.886-0.294-4.38,0.358-5.478c0.119-0.198,1.562-1.682,1.885-2.027l0.047,0.057
		c1.195-1.004,2.447-2.023,2.588-3.128c0.232-1.838-1.647-4.514-2.989-6.208c-1.343-1.698-3.423-4.668-6.256-4.248
		c-1.066,0.157-1.986,0.53-2.893,1.067L8.778,1.079C8.759,1.091,8.671,1.161,8.627,1.195C8.599,1.21,8.574,1.22,8.548,1.236
		l0.01,0.013C8.037,1.65,6.55,2.761,6.381,2.911C4.542,4.545,1.775,8.395,3.915,15.319c1.587,5.146,4.973,11.187,9.584,17.299
		l-0.025,0.021c0.226,0.295,0.458,0.562,0.693,0.847c0.22,0.292,0.436,0.58,0.662,0.869l0.032-0.022
		c4.894,5.896,10.027,10.607,14.71,13.388c6.307,3.739,10.79,2.055,12.86,0.715c0.195-0.129,1.676-1.279,2.178-1.66l0.013,0.013
		c0.019-0.019,0.031-0.044,0.056-0.062c0.038-0.028,0.119-0.091,0.135-0.103l-0.019-0.025c0.759-0.734,1.368-1.52,1.788-2.508
		C47.684,41.489,45.265,38.779,43.922,37.081L43.922,37.081z"/>
</g>
</svg>
