<?xml version="1.0" encoding="utf-8"?>
<!-- Generator: Adobe Illustrator 16.0.0, SVG Export Plug-In . SVG Version: 6.00 Build 0)  -->
<!DOCTYPE svg PUBLIC "-//W3C//DTD SVG 1.1//EN" "http://www.w3.org/Graphics/SVG/1.1/DTD/svg11.dtd">
<svg version="1.1" id="Capa_1" xmlns="http://www.w3.org/2000/svg" xmlns:xlink="http://www.w3.org/1999/xlink" x="0px" y="0px"
	 width="50px" height="50px" viewBox="0 0 50 50" enable-background="new 0 0 50 50" xml:space="preserve">
<g>
	<g transform="translate(1.000000, 0.000000)">
		<path fill="#FFFFFF" d="M8.313,43.662c0,1.769-1.49,3.203-3.329,3.203H2.458c-1.835,0-3.325-1.435-3.325-3.203V3.3
			c0-1.766,1.494-3.203,3.325-3.203h2.526c1.842,0,3.329,1.438,3.329,3.203V43.662L8.313,43.662z"/>
		<path fill="#FFFFFF" d="M45.627,0H14.795c-1.788,0-3.237,1.438-3.237,3.203v40.362c0,1.769,1.449,3.202,3.237,3.202h2.893V40.44
			h25.18v6.327h2.76c1.793,0,3.24-1.434,3.24-3.202V3.203C48.867,1.438,47.42,0,45.627,0L45.627,0z M20.95,37.638h-3.229v-3.297
			h3.229V37.638L20.95,37.638z M20.95,31.376h-3.229v-3.297h3.229V31.376L20.95,31.376z M20.95,25.113h-3.229v-3.246h3.229V25.113
			L20.95,25.113z M27.213,37.638h-3.229v-3.297h3.229V37.638L27.213,37.638z M27.213,31.376h-3.229v-3.345h3.229V31.376
			L27.213,31.376z M27.213,25.113h-3.229v-3.296h3.229V25.113L27.213,25.113z M33.475,37.638h-3.229v-3.247h3.229V37.638
			L33.475,37.638z M33.475,31.376h-3.229v-3.247h3.229V31.376L33.475,31.376z M33.475,25.113h-3.229V21.77h3.229V25.113
			L33.475,25.113z M42.918,28.101v3.278H36.51v-3.278H42.918L42.918,28.101z M36.51,25.113v-3.324h6.408v3.324H36.51L36.51,25.113z
			 M42.918,12.621H17.722V6.165h25.196V12.621L42.918,12.621z"/>
		<path fill="#FFFFFF" d="M39.641,50l-0.006-6.097H21.007L21.013,50H39.641L39.641,50z"/>
	</g>
</g>
</svg>
