<?xml version="1.0" encoding="utf-8"?>
<!-- Generator: Adobe Illustrator 16.0.0, SVG Export Plug-In . SVG Version: 6.00 Build 0)  -->
<!DOCTYPE svg PUBLIC "-//W3C//DTD SVG 1.1//EN" "http://www.w3.org/Graphics/SVG/1.1/DTD/svg11.dtd">
<svg version="1.1" id="Capa_1" xmlns="http://www.w3.org/2000/svg" xmlns:xlink="http://www.w3.org/1999/xlink" x="0px" y="0px"
	 width="50px" height="50px" viewBox="0 0 50 50" enable-background="new 0 0 50 50" xml:space="preserve">
<g>
	<g>
		<path fill="#FFFFFF" d="M4.859,9.184h3.218v3.825H4.859v24.668h3.111v3.517H4.859V50h37.457V0H4.859V9.184L4.859,9.184z
			 M15.514,13.828c0.095-0.076,0.854-0.643,1.125-0.848l-0.02-0.006c0.025-0.01,0.038-0.013,0.054-0.022
			c0.016-0.019,0.066-0.053,0.075-0.062l0.013,0.016c0.46-0.271,0.936-0.46,1.477-0.542c1.455-0.214,2.516,1.298,3.205,2.163
			c0.689,0.856,1.646,2.223,1.53,3.158c-0.069,0.563-0.715,1.083-1.325,1.593l-0.022-0.031c-0.167,0.18-0.903,0.933-0.966,1.032
			c-0.337,0.562-0.725,1.83-0.184,2.787c0.514,0.929,1.527,2.434,2.487,3.689c1.014,1.219,2.258,2.551,3.045,3.265
			c0.824,0.746,2.182,0.693,2.818,0.51c0.121-0.031,1.113-0.62,1.244-0.683c0.656-0.454,1.322-0.932,1.91-0.86
			c0.953,0.12,2.064,1.367,2.754,2.227c0.689,0.863,1.932,2.241,1.365,3.564c-0.219,0.5-0.533,0.899-0.924,1.274l0.014,0.013
			l-0.07,0.051c-0.012,0.013-0.02,0.025-0.02,0.025l-0.012,0.003c-0.258,0.194-1.02,0.777-1.115,0.847
			c-1.059,0.684-3.355,1.536-6.586-0.361c-2.396-1.414-5.024-3.812-7.534-6.811l-0.013,0.01c-0.116-0.148-0.227-0.296-0.337-0.444
			c-0.116-0.146-0.239-0.28-0.358-0.432l0.013-0.009c-2.355-3.107-4.087-6.187-4.899-8.803
			C13.166,16.614,14.579,14.658,15.514,13.828L15.514,13.828z"/>
		<rect x="1.52" y="9.445" fill="#FFFFFF" width="3.082" height="3.123"/>
		<rect x="1.52" y="37.78" fill="#FFFFFF" width="3.076" height="2.97"/>
		<rect x="45.598" y="6.297" fill="#FFFFFF" width="2.883" height="9.052"/>
		<rect x="45.598" y="34.632" fill="#FFFFFF" width="2.791" height="8.964"/>
		<rect x="45.598" y="18.891" fill="#FFFFFF" width="2.836" height="12.263"/>
	</g>
</g>
</svg>
