<?xml version="1.0" encoding="utf-8"?>
<!-- Generator: Adobe Illustrator 16.0.0, SVG Export Plug-In . SVG Version: 6.00 Build 0)  -->
<!DOCTYPE svg PUBLIC "-//W3C//DTD SVG 1.1//EN" "http://www.w3.org/Graphics/SVG/1.1/DTD/svg11.dtd">
<svg version="1.1" id="Capa_1" xmlns="http://www.w3.org/2000/svg" xmlns:xlink="http://www.w3.org/1999/xlink" x="0px" y="0px"
	 width="50px" height="50px" viewBox="0 0 50 50" enable-background="new 0 0 50 50" xml:space="preserve">
<g>
	<g>
		<g>
			<path fill="#FFFFFF" d="M4.253,2.917c0.186-0.149,1.678-1.262,2.211-1.666L6.427,1.241C6.475,1.222,6.5,1.215,6.532,1.196
				c0.03-0.035,0.129-0.104,0.148-0.121l0.024,0.03C7.608,0.574,8.543,0.201,9.606,0.04c2.859-0.419,4.944,2.55,6.299,4.25
				c1.354,1.684,3.235,4.369,3.007,6.207c-0.137,1.107-1.406,2.128-2.605,3.13l-0.043-0.061c-0.329,0.353-1.776,1.833-1.897,2.028
				c-0.663,1.104-1.425,3.595-0.361,5.476c1.009,1.826,3.002,4.783,4.888,7.251c1.992,2.395,4.438,5.012,5.984,6.413
				c1.621,1.468,4.289,1.365,5.539,1.004c0.238-0.062,2.188-1.221,2.444-1.342c1.29-0.895,2.599-1.832,3.754-1.69
				c1.874,0.234,4.058,2.688,5.411,4.375c1.356,1.696,3.797,4.404,2.684,7.005c-0.43,0.982-1.047,1.768-1.814,2.504l0.024,0.025
				l-0.138,0.101c-0.022,0.023-0.038,0.051-0.038,0.051l-0.021,0.004c-0.507,0.383-2.003,1.528-2.192,1.665
				c-2.08,1.342-6.593,3.02-12.941-0.711c-4.709-2.778-9.875-7.492-14.807-13.384l-0.025,0.019c-0.228-0.29-0.445-0.582-0.662-0.871
				c-0.228-0.287-0.47-0.552-0.704-0.85l0.024-0.018c-4.628-6.107-8.03-12.158-9.628-17.299C-0.361,8.393,2.417,4.549,4.253,2.917
				L4.253,2.917z"/>
		</g>
	</g>
</g>
<g>
	<g transform="translate(1.000000, 1.000000)">
		<path fill="#FFFFFF" d="M27.875,9.96c0.528,0.515,1.385,0.515,1.913,0V7.143h15.761C46.903,7.143,48,6.063,48,4.736
			c0-1.327-1.097-2.406-2.451-2.406H29.788v-2.94c-0.528-0.519-1.385-0.519-1.913,0L23.82,3.816c-0.527,0.516-0.527,1.354,0,1.873
			L27.875,9.96L27.875,9.96z"/>
		<path fill="#FFFFFF" d="M47.607,15.052L43.4,10.903c-0.527-0.523-1.385-0.523-1.914,0v2.83H26.068
			c-1.354,0-2.451,1.085-2.451,2.421c0,1.335,1.098,2.421,2.451,2.421h15.418v2.831c0.529,0.521,1.387,0.521,1.914,0l4.207-4.148
			C48.132,16.736,48.132,15.571,47.607,15.052L47.607,15.052z"/>
	</g>
</g>
</svg>
