<?xml version="1.0" encoding="utf-8"?>
<!-- Generator: Adobe Illustrator 16.0.0, SVG Export Plug-In . SVG Version: 6.00 Build 0)  -->
<!DOCTYPE svg PUBLIC "-//W3C//DTD SVG 1.1//EN" "http://www.w3.org/Graphics/SVG/1.1/DTD/svg11.dtd">
<svg version="1.1" id="Capa_1" xmlns="http://www.w3.org/2000/svg" xmlns:xlink="http://www.w3.org/1999/xlink" x="0px" y="0px"
	 width="50px" height="50px" viewBox="0 0 50 50" enable-background="new 0 0 50 50" xml:space="preserve">
<g>
	<g>
		<g>
			<path fill="#FFFFFF" d="M5.072,2.919c0.186-0.15,1.678-1.263,2.211-1.666L7.245,1.242C7.294,1.223,7.319,1.217,7.35,1.197
				C7.38,1.162,7.48,1.094,7.498,1.075l0.025,0.031c0.904-0.531,1.838-0.904,2.902-1.065c2.859-0.42,4.943,2.55,6.298,4.251
				c1.355,1.683,3.236,4.368,3.007,6.206c-0.136,1.107-1.405,2.128-2.604,3.13l-0.044-0.061c-0.328,0.353-1.775,1.833-1.897,2.028
				c-0.662,1.104-1.424,3.596-0.361,5.477c1.01,1.825,3.002,4.782,4.888,7.25c1.992,2.396,4.437,5.013,5.984,6.415
				c1.62,1.467,4.288,1.362,5.539,1.003c0.237-0.062,2.188-1.22,2.444-1.342c1.29-0.894,2.599-1.831,3.754-1.691
				c1.873,0.235,4.058,2.687,5.411,4.376c1.355,1.696,3.797,4.404,2.684,7.004c-0.43,0.983-1.048,1.768-1.815,2.505l0.026,0.024
				L43.6,46.717c-0.023,0.024-0.039,0.05-0.039,0.05l-0.022,0.005c-0.507,0.382-2.003,1.528-2.192,1.664
				c-2.08,1.344-6.593,3.02-12.941-0.709c-4.708-2.779-9.874-7.493-14.806-13.385l-0.025,0.02c-0.228-0.292-0.445-0.582-0.662-0.873
				c-0.228-0.286-0.47-0.551-0.704-0.848l0.025-0.019c-4.628-6.106-8.031-12.157-9.628-17.298C0.458,8.394,3.235,4.55,5.072,2.919
				L5.072,2.919z"/>
		</g>
	</g>
	<path fill="#FFFFFF" d="M35.996,0C29.27,0,23.817,5.453,23.817,12.179s5.452,12.179,12.179,12.179s12.179-5.453,12.179-12.179
		S42.723,0,35.996,0z M38,19.173c0,0.641-0.355,1.125-0.66,1.453s-0.793,0.492-1.262,0.492s-0.598-0.168-0.891-0.504
		S35,19.798,35,19.173v-9.152c0-0.633-0.156-1.109,0.137-1.43s0.523-0.48,0.992-0.48s0.982,0.16,1.287,0.48S38,9.357,38,9.927
		V19.173z M37.127,6.207c-0.312,0.277-0.684,0.416-1.113,0.416c-0.445,0-0.826-0.137-1.143-0.41s-0.475-0.66-0.475-1.16
		c0-0.453,0.162-0.826,0.486-1.119s0.701-0.439,1.131-0.439c0.414,0,0.781,0.133,1.102,0.398s0.48,0.652,0.48,1.16
		C37.596,5.544,37.439,5.929,37.127,6.207z"/>
</g>
</svg>
