<?xml version="1.0" encoding="utf-8"?>
<!-- Generator: Adobe Illustrator 16.0.0, SVG Export Plug-In . SVG Version: 6.00 Build 0)  -->
<!DOCTYPE svg PUBLIC "-//W3C//DTD SVG 1.1//EN" "http://www.w3.org/Graphics/SVG/1.1/DTD/svg11.dtd">
<svg version="1.1" id="Capa_1" xmlns="http://www.w3.org/2000/svg" xmlns:xlink="http://www.w3.org/1999/xlink" x="0px" y="0px"
	 width="50px" height="50px" viewBox="0 0 50 50" enable-background="new 0 0 50 50" xml:space="preserve">
<g>
	<g transform="translate(0.000000, 1.000000)">
		<path fill="#00B8D4" d="M49.07,8.073l-4.803-4.737c-1.283-1.277-3.811-1.805-5.028-0.591L20.292,21.604
			c0,0-4.133,12.243-4.524,13.273c-0.31,0.82,0.723,1.846,1.439,1.486c1.17-0.582,12.846-5.104,12.846-5.104l18.996-18.953
			C50.27,11.092,50.357,9.347,49.07,8.073L49.07,8.073z M28.228,29.802l-8.032,3.048l-1.443-1.33l3.833-9.278l2.319,1.709h3.31
			L28.228,29.802L28.228,29.802z"/>
		<path fill="#00B8D4" d="M37.681,31.338v11.567H2.998V8.354l25.606-0.26l2.541-2.688H0v40.497h40.679l-0.178-16.965L37.681,31.338z
			"/>
	</g>
</g>
</svg>
