<?xml version="1.0" encoding="utf-8"?>
<!-- Generator: Adobe Illustrator 16.0.0, SVG Export Plug-In . SVG Version: 6.00 Build 0)  -->
<!DOCTYPE svg PUBLIC "-//W3C//DTD SVG 1.1//EN" "http://www.w3.org/Graphics/SVG/1.1/DTD/svg11.dtd">
<svg version="1.1" id="Capa_1" xmlns="http://www.w3.org/2000/svg" xmlns:xlink="http://www.w3.org/1999/xlink" x="0px" y="0px"
	 width="50px" height="50px" viewBox="0 0 50 50" enable-background="new 0 0 50 50" xml:space="preserve">
<g>
	<path fill="#00B8D4" d="M7.166,22h-1.89L0.174,36.065c-0.541,1.479,0.22,3.116,1.699,3.656c0.322,0.118,0.662,0.177,1.004,0.174
		h7.45c1.207,0.004,2.287-0.746,2.703-1.879L18.842,22H7.166L7.166,22z M11.301,34.56h-7.45c-0.43,0-0.778-0.348-0.778-0.778
		c0-0.43,0.348-0.777,0.778-0.777h7.45c0.43,0,0.778,0.348,0.778,0.777C12.08,34.212,11.731,34.56,11.301,34.56z M12.397,31.226
		h-7.45c-0.43,0-0.778-0.349-0.778-0.778s0.349-0.778,0.778-0.778h7.451c0.43,0,0.778,0.349,0.778,0.778
		S12.828,31.226,12.397,31.226L12.397,31.226z"/>
	<polygon fill="#00B8D4" points="6.429,20.444 6.429,11.33 4.317,11.33 4.317,20.444 4.729,20.444 	"/>
	<path fill="#00B8D4" d="M21.077,24.26c0.084,0.753,0.608,1.385,1.333,1.607l1.302,0.398c0.41,0.126,0.64,0.561,0.514,0.97
		c-0.126,0.41-0.561,0.641-0.97,0.515l-1.302-0.404c-1.259-0.389-2.188-1.459-2.398-2.761l-2.092,5.751h5.997
		c0.761,0.009,1.428-0.508,1.609-1.246L26.814,22h-5.992L21.077,24.26z"/>
	<rect x="13.542" y="10.107" fill="#00B8D4" width="14.783" height="2.89"/>
	<polygon fill="#00B8D4" points="7.985,20.444 19.952,20.444 43.699,20.444 46.555,20.444 46.555,18.332 7.985,18.332 	"/>
	<rect x="48.11" y="11.44" fill="#00B8D4" width="1.89" height="7.336"/>
	<path fill="#00B8D4" d="M29.882,13.797c-0.011,0.428-0.366,0.767-0.794,0.756c-0.001,0-0.002,0-0.003,0H12.767
		c-0.42,0.011-0.77-0.321-0.78-0.742c0-0.004,0-0.009,0-0.014v-3.69H7.985v6.669h38.569v-6.669H29.882V13.797z"/>
</g>
</svg>
