<?xml version="1.0" encoding="utf-8"?>
<!-- Generator: Adobe Illustrator 16.0.0, SVG Export Plug-In . SVG Version: 6.00 Build 0)  -->
<!DOCTYPE svg PUBLIC "-//W3C//DTD SVG 1.1//EN" "http://www.w3.org/Graphics/SVG/1.1/DTD/svg11.dtd">
<svg version="1.1" id="Capa_1" xmlns="http://www.w3.org/2000/svg" xmlns:xlink="http://www.w3.org/1999/xlink" x="0px" y="0px"
	 width="50px" height="50px" viewBox="0 0 50 50" enable-background="new 0 0 50 50" xml:space="preserve">
<g>
	<g transform="translate(2.000000, 0.000000)">
		<path fill="#FFFFFF" d="M26.573,4.026C26.573,1.8,24.822,0,22.665,0S18.76,1.8,18.76,4.026c0,0.251,0.028,0.501,0.069,0.742
			C10.481,8.022,4.213,14.842,4.213,31.212h37.574c0.004-16.373-6.938-23.188-15.289-26.443C26.545,4.527,26.573,4.277,26.573,4.026
			z"/>
		<path fill="#FFFFFF" d="M44.919,40.604H1.081l2.837-6.262h37.281L44.919,40.604z"/>
		<path fill="#FFFFFF" d="M22.877,50c3.396,0,6.142-2.747,6.142-6.128H16.737C16.737,47.253,19.487,50,22.877,50L22.877,50z"/>
	</g>
</g>
</svg>
