<?xml version="1.0" encoding="utf-8"?>
<!-- Generator: Adobe Illustrator 16.0.0, SVG Export Plug-In . SVG Version: 6.00 Build 0)  -->
<!DOCTYPE svg PUBLIC "-//W3C//DTD SVG 1.1//EN" "http://www.w3.org/Graphics/SVG/1.1/DTD/svg11.dtd">
<svg version="1.1" id="Capa_1" xmlns="http://www.w3.org/2000/svg" xmlns:xlink="http://www.w3.org/1999/xlink" x="0px" y="0px"
	 width="50px" height="50px" viewBox="0 0 50 50" enable-background="new 0 0 50 50" xml:space="preserve">
<g>
	<rect x="12.438" fill="#FFFFFF" width="3.041" height="5.985"/>
	<rect x="34.361" fill="#FFFFFF" width="3.133" height="5.969"/>
	<path fill="#FFFFFF" d="M45.706,3.314h-4.979V9.66H31.13V3.314H18.809V9.66H9.111V3.314H4.298c-2.343,0-4.241,1.964-4.241,4.378
		v7.84h49.888v-7.84C49.945,5.277,48.049,3.314,45.706,3.314z"/>
	<path fill="#FFFFFF" d="M0.054,45.617C0.054,48.035,1.952,50,4.295,50h41.408c2.343,0,4.24-1.965,4.24-4.383V18.802H0.054V45.617z
		 M40.155,21.545h7.097v7.098h-7.097V21.545z M40.155,30.988h7.097v7.098h-7.097V30.988z M40.155,40.433h7.097v7.098h-7.097V40.433z
		 M30.845,21.545h7.097v7.098h-7.097V21.545z M30.845,30.988h7.097v7.098h-7.097V30.988z M30.845,40.433h7.097v7.098h-7.097V40.433z
		 M21.534,21.545h7.097v7.098h-7.097V21.545z M21.534,30.988h7.097v7.098h-7.097V30.988z M21.534,40.433h7.097v7.098h-7.097V40.433z
		 M12.224,21.545h7.097v7.098h-7.097V21.545z M12.224,30.988h7.097v7.098h-7.097V30.988z M12.224,40.433h7.097v7.098h-7.097V40.433z
		 M2.913,21.545h7.097v7.098H2.913V21.545z M2.913,30.988h7.097v7.098H2.913V30.988z M2.913,40.433h7.097v7.098H2.913V40.433z"/>
</g>
</svg>
