<?xml version="1.0" encoding="utf-8"?>
<!-- Generator: Adobe Illustrator 16.0.0, SVG Export Plug-In . SVG Version: 6.00 Build 0)  -->
<!DOCTYPE svg PUBLIC "-//W3C//DTD SVG 1.1//EN" "http://www.w3.org/Graphics/SVG/1.1/DTD/svg11.dtd">
<svg version="1.1" id="Capa_1" xmlns="http://www.w3.org/2000/svg" xmlns:xlink="http://www.w3.org/1999/xlink" x="0px" y="0px"
	 width="50px" height="50px" viewBox="0 0 50 50" enable-background="new 0 0 50 50" xml:space="preserve">
<g>
	<g transform="translate(1.000000, 0.000000)">
		<path fill="#FFFFFF" d="M49,18.662C49,8.384,40.616,0.056,30.277,0.056c-10.346,0-18.728,8.328-18.728,18.606
			c0,10.272,8.384,18.601,18.728,18.601C40.616,37.263,49,28.935,49,18.662L49,18.662z M14.419,18.865
			c0-8.77,7.122-15.862,15.912-15.862c8.785,0,15.9,7.097,15.9,15.862c0,8.762-7.115,15.859-15.9,15.859
			C21.541,34.725,14.419,27.625,14.419,18.865L14.419,18.865z"/>
		<path fill="#FFFFFF" d="M4.693,49.944L-1,44.25l12.615-12.619c0,0,0.3,2.391,1.812,3.896c1.507,1.513,3.881,1.801,3.881,1.801
			L4.693,49.944L4.693,49.944z"/>
		<path fill="#FFFFFF" d="M40.869,15.909c0,1.787,1.374,1.112,1.374-1.372c0-4.281-3.466-7.75-7.747-7.75
			c-2.49,0-3.162,1.372-1.371,1.372C37.406,8.159,40.869,11.631,40.869,15.909L40.869,15.909z"/>
	</g>
</g>
</svg>
