<?xml version="1.0" encoding="utf-8"?>
<!-- Generator: Adobe Illustrator 16.0.0, SVG Export Plug-In . SVG Version: 6.00 Build 0)  -->
<!DOCTYPE svg PUBLIC "-//W3C//DTD SVG 1.1//EN" "http://www.w3.org/Graphics/SVG/1.1/DTD/svg11.dtd">
<svg version="1.1" id="Capa_1" xmlns="http://www.w3.org/2000/svg" xmlns:xlink="http://www.w3.org/1999/xlink" x="0px" y="0px"
	 width="50px" height="50px" viewBox="0 0 50 50" enable-background="new 0 0 50 50" xml:space="preserve">
<g>
	<g transform="translate(1.000000, 0.000000)">
		<path fill="#FFFFFF" d="M49,18.664C49,8.385,40.615,0.058,30.277,0.058c-10.348,0-18.727,8.328-18.727,18.606
			c0,10.272,8.384,18.599,18.727,18.599C40.615,37.263,49,28.936,49,18.664L49,18.664z M14.418,18.866
			c0-8.768,7.124-15.861,15.913-15.861c8.783,0,15.898,7.096,15.898,15.861c0,8.763-7.115,15.86-15.898,15.86
			C21.542,34.726,14.418,27.625,14.418,18.866L14.418,18.866z"/>
		<path fill="#FFFFFF" d="M4.693,49.942L-1,44.249l12.616-12.616c0,0,0.299,2.39,1.811,3.896c1.507,1.512,3.883,1.8,3.883,1.8
			L4.693,49.942L4.693,49.942z"/>
	</g>
</g>
<g>
	<g>
		<g>
			<path fill="#FFFFFF" d="M22.88,8.771c0.083-0.067,0.751-0.565,0.99-0.746L23.853,8.02C23.875,8.012,23.886,8.009,23.9,8
				c0.014-0.016,0.059-0.046,0.066-0.055l0.011,0.014c0.405-0.237,0.823-0.405,1.3-0.477c1.28-0.188,2.214,1.143,2.82,1.904
				c0.606,0.753,1.449,1.956,1.347,2.779c-0.062,0.496-0.629,0.954-1.167,1.402l-0.019-0.027c-0.147,0.158-0.795,0.821-0.851,0.908
				c-0.296,0.494-0.638,1.611-0.162,2.453c0.452,0.817,1.345,2.142,2.189,3.248c0.893,1.073,1.987,2.244,2.681,2.873
				c0.726,0.657,1.92,0.61,2.48,0.449c0.105-0.027,0.979-0.546,1.095-0.601c0.578-0.4,1.164-0.82,1.682-0.757
				c0.839,0.106,1.816,1.203,2.423,1.96c0.607,0.759,1.7,1.973,1.202,3.137c-0.192,0.439-0.47,0.791-0.813,1.121l0.012,0.012
				l-0.062,0.045c-0.011,0.011-0.018,0.021-0.018,0.021l-0.01,0.003c-0.227,0.171-0.896,0.684-0.982,0.744
				c-0.931,0.603-2.952,1.354-5.795-0.316c-2.109-1.245-4.422-3.356-6.632-5.995l-0.011,0.009c-0.103-0.131-0.199-0.261-0.297-0.392
				c-0.102-0.127-0.21-0.247-0.315-0.379l0.012-0.008c-2.073-2.735-3.597-5.445-4.312-7.748C20.814,11.223,22.057,9.501,22.88,8.771
				L22.88,8.771z"/>
		</g>
	</g>
</g>
</svg>
