<?xml version="1.0" encoding="utf-8"?>
<!-- Generator: Adobe Illustrator 16.0.0, SVG Export Plug-In . SVG Version: 6.00 Build 0)  -->
<!DOCTYPE svg PUBLIC "-//W3C//DTD SVG 1.1//EN" "http://www.w3.org/Graphics/SVG/1.1/DTD/svg11.dtd">
<svg version="1.1" id="Capa_1" xmlns="http://www.w3.org/2000/svg" xmlns:xlink="http://www.w3.org/1999/xlink" x="0px" y="0px"
	 width="50px" height="50px" viewBox="0 0 50 50" enable-background="new 0 0 50 50" xml:space="preserve">
<g>
	<g transform="translate(1.000000, 1.000000)">
		<path fill="#FFFFFF" d="M35.565,28.861c-2.678,3.652-11.57,4.585-11.57,4.585s-9.094-0.898-11.772-4.509
			C-0.614,28.938-1,47.608-1,47.608h49.986C48.985,47.611,49.993,28.861,35.565,28.861L35.565,28.861z"/>
		<path fill="#FFFFFF" d="M33.206,9.94c0,5.277-4.119,15.357-9.195,15.357c-5.082,0-9.202-10.08-9.202-15.357
			c0-5.271,4.12-9.549,9.202-9.549C29.087,0.395,33.206,4.669,33.206,9.94L33.206,9.94z"/>
	</g>
</g>
</svg>
