<?xml version="1.0" encoding="utf-8"?>
<!-- Generator: Adobe Illustrator 16.0.0, SVG Export Plug-In . SVG Version: 6.00 Build 0)  -->
<!DOCTYPE svg PUBLIC "-//W3C//DTD SVG 1.1//EN" "http://www.w3.org/Graphics/SVG/1.1/DTD/svg11.dtd">
<svg version="1.1" id="Capa_1" xmlns="http://www.w3.org/2000/svg" xmlns:xlink="http://www.w3.org/1999/xlink" x="0px" y="0px"
	 width="50px" height="50px" viewBox="0 0 50 50" enable-background="new 0 0 50 50" xml:space="preserve">
<g>
	<path fill="#00B8D4" d="M45.938,20.946l-0.032,0.006v-3.465c0-9.63-8.169-17.467-18.211-17.467h-5.221
		c-10.042,0-18.209,7.834-18.209,17.467v3.48c-0.078,0-0.157-0.025-0.238-0.025C1.806,20.943,0,22.796,0,25.08v8.44
		c0,2.287,1.806,4.128,4.027,4.128c0.194,0,0.393-0.035,0.581-0.061c1.819,5.438,8.421,9.631,16.613,10.411
		c0.873,1.151,1.25,1.981,3.924,1.981c3.429,0,6.008-1.351,6.008-3.019c0-1.664-2.579-3.02-6.008-3.02
		c-2.652,0-3.02,0.816-3.908,1.954c-7.397-0.738-13.306-4.429-14.72-9.153c1.404,0,2.563-1.909,2.563-3.226v-0.383H9.1V17.306
		c0-8,4.768-11.364,13.375-11.364h5.221c8.584,0,13.013,3.254,13.013,11.399v15.831h0.044v0.346c0,2.287,2.362,3.835,4.604,3.835
		c2.243,0,4.644-1.548,4.644-3.835v-8.44C49.996,22.799,48.181,20.946,45.938,20.946L45.938,20.946z"/>
</g>
</svg>
