<?xml version="1.0" encoding="utf-8"?>
<!-- Generator: Adobe Illustrator 16.0.0, SVG Export Plug-In . SVG Version: 6.00 Build 0)  -->
<!DOCTYPE svg PUBLIC "-//W3C//DTD SVG 1.1//EN" "http://www.w3.org/Graphics/SVG/1.1/DTD/svg11.dtd">
<svg version="1.1" id="Capa_1" xmlns="http://www.w3.org/2000/svg" xmlns:xlink="http://www.w3.org/1999/xlink" x="0px" y="0px"
	 width="50px" height="50px" viewBox="0 0 50 50" enable-background="new 0 0 50 50" xml:space="preserve">
<g>
	<g transform="translate(1.000000, 2.000000)">
		<path fill="#00B8D4" d="M48.496,24.31l-4.904-5.332c-0.676-0.666-1.766-0.666-2.438,0l-4.912,5.332
			c-0.676,0.673-0.676,1.756,0,2.426h4.064c-1.527,5.73-6.023,10.35-11.898,11.901c-6.809,1.796-14.088-0.876-18.111-6.655
			l-3.426,2.359c3.976,5.712,10.498,8.994,17.267,8.994c1.772,0,3.569-0.227,5.331-0.694c7.697-2.028,13.514-8.269,15.115-15.905
			h3.908C49.168,26.065,49.168,24.982,48.496,24.31L48.496,24.31z"/>
		<path fill="#00B8D4" d="M12.945,21.524c0.675-0.668,0.675-1.755,0-2.424H8.369c1.564-5.655,6.024-10.2,11.843-11.739
			c6.814-1.799,14.087,0.88,18.107,6.661l3.43-2.361C36.729,4.454,27.66,1.112,19.141,3.354C11.503,5.374,5.722,11.536,4.066,19.1
			h-4.56c-0.675,0.672-0.675,1.759,0,2.424l5.144,5.142c0.672,0.665,1.765,0.665,2.437,0L12.945,21.524L12.945,21.524z"/>
	</g>
</g>
</svg>
