<?xml version="1.0" encoding="utf-8"?>
<!-- Generator: Adobe Illustrator 16.0.0, SVG Export Plug-In . SVG Version: 6.00 Build 0)  -->
<!DOCTYPE svg PUBLIC "-//W3C//DTD SVG 1.1//EN" "http://www.w3.org/Graphics/SVG/1.1/DTD/svg11.dtd">
<svg version="1.1" id="Capa_1" xmlns="http://www.w3.org/2000/svg" xmlns:xlink="http://www.w3.org/1999/xlink" x="0px" y="0px"
	 width="50px" height="50px" viewBox="0 0 50 50" enable-background="new 0 0 50 50" xml:space="preserve">
<g>
	<g>
		<path fill="#00B8D4" d="M23.921,0.013v12.433h3.958l5.178-5.151L23.921,0.013z"/>
		<path fill="#00B8D4" d="M30.071,38.47c-4.734,1.833-11.771,4.597-12.599,4.995c-0.523,0.263-1.14,0.41-1.761,0.41
			c-1.416,0-2.776-0.736-3.631-1.978c-0.83-1.2-1.031-2.691-0.542-3.991c0.276-0.718,2.901-8.466,4.496-13.185l0.245-0.724
			l8.356-8.315h-3.995V0H2.045v50h37.417V29.496l-8.751,8.729L30.071,38.47L30.071,38.47z"/>
		<path fill="#00B8D4" d="M47.939,12.213L43.131,7.47c-1.285-1.278-3.816-1.808-5.035-0.592L19.124,25.762
			c0,0-4.139,12.26-4.53,13.291c-0.311,0.821,0.723,1.849,1.441,1.488c1.172-0.583,12.862-5.11,12.862-5.11l19.021-18.978
			C49.141,15.237,49.229,13.489,47.939,12.213L47.939,12.213z M27.069,33.971l-8.042,3.052l-1.444-1.331l3.838-9.29l2.322,1.71
			h3.314L27.069,33.971L27.069,33.971z"/>
	</g>
</g>
</svg>
