<?xml version="1.0" encoding="utf-8"?>
<!-- Generator: Adobe Illustrator 16.0.0, SVG Export Plug-In . SVG Version: 6.00 Build 0)  -->
<!DOCTYPE svg PUBLIC "-//W3C//DTD SVG 1.1//EN" "http://www.w3.org/Graphics/SVG/1.1/DTD/svg11.dtd">
<svg version="1.1" id="Capa_1" xmlns="http://www.w3.org/2000/svg" xmlns:xlink="http://www.w3.org/1999/xlink" x="0px" y="0px"
	 width="50px" height="50px" viewBox="0 0 50 50" enable-background="new 0 0 50 50" xml:space="preserve">
<g>
	<g transform="translate(1.000000, 0.000000)">
		<g transform="translate(0.000000, 2.000000)">
			<path fill="#00B8D4" d="M23.994,35.811c-4.512,0-9.096-2.678-11.771-6.223C-0.612,29.588-1,47.923-1,47.923h49.984
				c0,0,1.008-18.416-13.427-18.416C32.886,33.096,28.506,35.811,23.994,35.811z"/>
			<path fill="#00B8D4" d="M34.745,13.83c0,5.276-4.816,15.363-10.76,15.363c-5.936,0-10.754-10.091-10.754-15.363
				s4.815-9.553,10.754-9.553C29.929,4.281,34.745,8.561,34.745,13.83L34.745,13.83z"/>
		</g>
		<path fill="#00B8D4" d="M39.545,11.278c0-0.989-1.377-1.787-3.085-1.793V7.448c0-0.303,0.115-7.409-12.438-7.409
			c-12.547,0-12.431,7.106-12.431,7.409v2.109c-0.032,0-0.057-0.009-0.084-0.009c-1.699,0-3.066,0.786-3.066,1.758v8.617
			c0,0.967,1.37,1.755,3.066,1.755c1.696,0,3.072-0.789,3.072-1.755v-8.617c0-0.134-0.084-0.256-0.134-0.381v-2.35
			c0-0.216-0.901-5.579,9.578-5.579c10.481,0,9.394,5.363,9.394,5.579v2.475c-0.02,0.079-0.079,0.147-0.079,0.229v8.814
			c0,0.992,1.386,1.796,3.104,1.796c0.038,0,0.066-0.013,0.104-0.013v3.22h-3.078v3.036h6.11L39.545,11.278L39.545,11.278z"/>
	</g>
</g>
</svg>
