<?xml version="1.0" encoding="utf-8"?>
<!-- Generator: Adobe Illustrator 16.0.0, SVG Export Plug-In . SVG Version: 6.00 Build 0)  -->
<!DOCTYPE svg PUBLIC "-//W3C//DTD SVG 1.1//EN" "http://www.w3.org/Graphics/SVG/1.1/DTD/svg11.dtd">
<svg version="1.1" id="Capa_1" xmlns="http://www.w3.org/2000/svg" xmlns:xlink="http://www.w3.org/1999/xlink" x="0px" y="0px"
	 width="40px" height="40px" viewBox="0 0 40 40" enable-background="new 0 0 40 40" xml:space="preserve">
<g>
	<path fill="#A5A4AA" d="M8.905,18.821H7.724l-3.188,8.791c-0.338,0.925,0.137,1.947,1.061,2.285
		c0.202,0.074,0.414,0.11,0.628,0.109h4.656c0.754,0.002,1.429-0.468,1.689-1.175l3.633-10.01H8.905L8.905,18.821z M11.49,26.671
		H6.833c-0.269,0-0.486-0.217-0.486-0.485c0-0.27,0.217-0.486,0.486-0.486h4.657c0.268,0,0.486,0.217,0.486,0.486
		C11.976,26.454,11.758,26.671,11.49,26.671z M12.175,24.586H7.519c-0.269,0-0.486-0.218-0.486-0.484
		c0-0.271,0.217-0.486,0.486-0.486h4.657c0.268,0,0.486,0.217,0.486,0.486C12.662,24.368,12.443,24.586,12.175,24.586L12.175,24.586
		z"/>
	<polygon fill="#A5A4AA" points="8.445,17.848 8.445,12.152 7.125,12.152 7.125,17.848 7.383,17.848 	"/>
	<path fill="#A5A4AA" d="M17.599,20.233c0.053,0.471,0.38,0.865,0.833,1.005l0.813,0.248c0.256,0.078,0.4,0.351,0.321,0.605
		c-0.079,0.256-0.35,0.4-0.606,0.321l-0.813-0.252c-0.787-0.243-1.368-0.913-1.499-1.726l-1.308,3.594h3.749
		c0.476,0.006,0.892-0.316,1.006-0.778l1.088-4.431H17.44L17.599,20.233z"/>
	<rect x="12.891" y="11.388" fill="#A5A4AA" width="9.238" height="1.806"/>
	<polygon fill="#A5A4AA" points="9.417,17.848 16.896,17.848 31.736,17.848 33.521,17.848 33.521,16.528 9.417,16.528 	"/>
	<rect x="34.495" y="12.221" fill="#A5A4AA" width="1.181" height="4.585"/>
	<path fill="#A5A4AA" d="M23.104,13.694c-0.006,0.267-0.229,0.479-0.496,0.472h-0.002H12.406c-0.263,0.007-0.481-0.201-0.488-0.463
		c0-0.003,0-0.006,0-0.009v-2.307h-2.5v4.168h24.105v-4.168h-10.42V13.694z"/>
</g>
</svg>
