<?xml version="1.0" encoding="utf-8"?>
<!-- Generator: Adobe Illustrator 16.0.0, SVG Export Plug-In . SVG Version: 6.00 Build 0)  -->
<!DOCTYPE svg PUBLIC "-//W3C//DTD SVG 1.1//EN" "http://www.w3.org/Graphics/SVG/1.1/DTD/svg11.dtd">
<svg version="1.1" id="Capa_1" xmlns="http://www.w3.org/2000/svg" xmlns:xlink="http://www.w3.org/1999/xlink" x="0px" y="0px"
	 width="50px" height="50px" viewBox="0 0 50 50" enable-background="new 0 0 50 50" xml:space="preserve">
<g>
	<path fill="#FFFFFF" d="M26,12V9h-1.581h-0.002c-0.415,0-1.252,0.174-1.531,0.947C22.596,10.743,22.023,12,22.023,12h0.002H26z"/>
	<path fill="#FFFFFF" d="M34.101,12l-1.075-2.059c0,0-0.025-0.951-2.025-0.951V9h-3v3h6.099H34.101z"/>
	<path fill="#FFFFFF" d="M25.426,43.759l13.868-22.961c0.831-1.823,1.293-3.84,1.293-5.953C40.587,6.646,33.683,0,25.162,0
		C16.64,0,9.731,6.646,9.731,14.845c0,2.117,0.47,4.13,1.299,5.953L25.426,43.759z M18.39,19.592c-1.223,0-2.215-0.991-2.215-2.215
		s0.992-2.216,2.215-2.216c1.224,0,2.215,0.992,2.215,2.216S19.614,19.592,18.39,19.592z M31.772,19.592
		c-1.223,0-2.216-0.991-2.216-2.215s0.993-2.216,2.216-2.216c1.225,0,2.216,0.992,2.216,2.216S32.997,19.592,31.772,19.592z
		 M14.068,15.871c0-1.756,1.562-3.553,4.562-3.553l1.16-0.144l1.285-2.329C21.076,9.473,22.435,8,24.113,8h7.851
		c1.679,0,3.039,1.271,3.039,1.853l0.874,2.867C36.879,13.294,37,14.029,37,14.917V18h-1.56c0.054,0,0.083-0.45,0.083-0.715
		c0-2.052-1.678-3.687-3.746-3.687c-2.069,0-3.745,1.622-3.745,3.674c0,0.265,0.03,0.728,0.082,0.728h-6.057
		c0.054,0,0.083-0.45,0.083-0.715c0-2.052-1.676-3.687-3.744-3.687c-2.071,0-3.746,1.622-3.746,3.674
		c0,0.265,0.03,0.728,0.083,0.728h-1.499L14.068,15.871z"/>
	<path fill="#FFFFFF" d="M33,34.413v2.571c6,1.192,7.846,2.646,7.846,4.324c0,2.412-5.586,5.737-15.888,5.737
		c-10.303,0-15.964-3.325-15.964-5.737c0-1.684,2.272-3.182,7.658-4.324l-0.011-2.581c-5.88,1.107-10.256,3.456-10.256,6.905
		C6.384,46.277,16.036,50,25.11,50s18.409-3.723,18.409-8.691C43.519,37.866,39,35.561,33,34.413z"/>
</g>
</svg>
