<?xml version="1.0" encoding="utf-8"?>
<!-- Generator: Adobe Illustrator 16.0.0, SVG Export Plug-In . SVG Version: 6.00 Build 0)  -->
<!DOCTYPE svg PUBLIC "-//W3C//DTD SVG 1.1//EN" "http://www.w3.org/Graphics/SVG/1.1/DTD/svg11.dtd">
<svg version="1.1" id="Capa_1" xmlns="http://www.w3.org/2000/svg" xmlns:xlink="http://www.w3.org/1999/xlink" x="0px" y="0px"
	 width="50px" height="50px" viewBox="0 0 50 50" enable-background="new 0 0 50 50" xml:space="preserve">
<g>
	<g transform="translate(1.000000, 1.000000)">
		<path fill="#FFFFFF" d="M24,48.979c-13.789,0-25-11.205-25-24.977c0-13.775,11.21-24.98,25-24.98c13.787,0,25,11.205,25,24.98
			C49,37.77,37.786,48.979,24,48.979L24,48.979L24,48.979z M23.889,4.745c-10.546,0-19.131,8.623-19.131,19.218
			c0,10.594,8.585,19.217,19.131,19.217c10.551,0,19.136-8.623,19.136-19.217C43.024,13.368,34.439,4.745,23.889,4.745L23.889,4.745
			L23.889,4.745z"/>
		<rect x="20.83" y="11.466" fill="#FFFFFF" width="3.015" height="12.51"/>
		<rect x="20.83" y="24.044" fill="#FFFFFF" width="12.383" height="3.079"/>
	</g>
</g>
</svg>
