<?xml version="1.0" encoding="utf-8"?>
<!-- Generator: Adobe Illustrator 16.0.0, SVG Export Plug-In . SVG Version: 6.00 Build 0)  -->
<!DOCTYPE svg PUBLIC "-//W3C//DTD SVG 1.1//EN" "http://www.w3.org/Graphics/SVG/1.1/DTD/svg11.dtd">
<svg version="1.1" id="Capa_1" xmlns="http://www.w3.org/2000/svg" xmlns:xlink="http://www.w3.org/1999/xlink" x="0px" y="0px"
	 width="50px" height="50px" viewBox="0 0 50 50" enable-background="new 0 0 50 50" xml:space="preserve">
<title>970</title>
<g>
	<g transform="translate(1.000000, 0.000000)">
		<path fill="#00B8D4" d="M41.848,50c-1.517,0-2.657-0.6-3.229-1.174L23.918,34.141L9.816,48.246
			c-0.55,0.547-1.822,1.212-3.52,1.212c-1.273,0-3.194-0.384-5.016-2.204c-1.838-1.831-2.246-3.644-2.254-4.826
			c-0.034-1.563,0.573-2.745,1.165-3.325L14.533,24.75L0.557,10.79c-1.265-1.272-2.322-5.217,0.999-8.527
			C3.427,0.391,5.265,0,6.489,0c1.522,0,2.662,0.598,3.22,1.172l14.21,14.193l14.109-14.11c0.566-0.557,1.832-1.214,3.528-1.214
			c1.281,0,3.204,0.383,5.024,2.213c3.146,3.153,2.511,6.739,1.091,8.153L33.31,24.767L47.76,39.21
			c0.558,0.566,1.215,1.831,1.215,3.527c0,1.282-0.373,3.186-2.204,5.009C44.897,49.61,43.069,50,41.848,50L41.848,50L41.848,50z"/>
	</g>
</g>
</svg>
