<?xml version="1.0" encoding="utf-8"?>
<!-- Generator: Adobe Illustrator 16.0.0, SVG Export Plug-In . SVG Version: 6.00 Build 0)  -->
<!DOCTYPE svg PUBLIC "-//W3C//DTD SVG 1.1//EN" "http://www.w3.org/Graphics/SVG/1.1/DTD/svg11.dtd">
<svg version="1.1" id="Capa_1" xmlns="http://www.w3.org/2000/svg" xmlns:xlink="http://www.w3.org/1999/xlink" x="0px" y="0px"
	 width="50px" height="50px" viewBox="0 0 50 50" enable-background="new 0 0 50 50" xml:space="preserve">
<g>
	<path fill="#00B8D4" d="M48.757,7.587L42.45,1.328c-1.695-1.689-4.35-1.778-5.925-0.202L7.838,29.855
		c0,0-7.273,16.735-7.766,18.087c-0.394,1.068,0.962,2.424,1.9,1.966c1.51-0.746,18.055-7.926,18.055-7.926l28.755-28.85
		C50.361,11.553,50.452,9.276,48.757,7.587L48.757,7.587z M4.195,43.351l5.414-11.409l-0.057,2.221l3.14-0.044L42.648,4.419
		l3.961,3.888L17.721,36.506l-0.714,2.365l1.529,1.528l-11.987,5.21L4.195,43.351L4.195,43.351z"/>
</g>
</svg>
