<?xml version="1.0" encoding="utf-8"?>
<!-- Generator: Adobe Illustrator 16.0.0, SVG Export Plug-In . SVG Version: 6.00 Build 0)  -->
<!DOCTYPE svg PUBLIC "-//W3C//DTD SVG 1.1//EN" "http://www.w3.org/Graphics/SVG/1.1/DTD/svg11.dtd">
<svg version="1.1" id="Capa_1" xmlns="http://www.w3.org/2000/svg" xmlns:xlink="http://www.w3.org/1999/xlink" x="0px" y="0px"
	 width="50px" height="50px" viewBox="0 0 50 50" enable-background="new 0 0 50 50" xml:space="preserve">
<g>
	<path fill="#00B8D4" d="M25.005,0C11.195,0,0.002,11.197,0.002,25c0,13.807,11.193,25,25.003,25c13.804,0,24.993-11.192,24.993-25
		C49.998,11.197,38.806,0,25.005,0L25.005,0z M34.507,9.948c3.489,0,6.306,3.349,6.306,7.492c0,4.131-2.816,7.492-6.306,7.492
		c-3.467,0-6.292-3.36-6.292-7.492C28.215,13.296,31.04,9.948,34.507,9.948L34.507,9.948z M15.617,9.948
		c3.477,0,6.299,3.355,6.299,7.492c0,4.135-2.822,7.492-6.299,7.492c-3.477,0-6.299-3.357-6.299-7.492
		C9.318,13.3,12.14,9.948,15.617,9.948L15.617,9.948z"/>
</g>
<g>
	<path fill="#FFFFFF" d="M24.999,42.827c-7.88,0-16.031-5.086-16.031-13.597c0-0.553,0.448-1,1-1s1,0.447,1,1
		c0,7.259,7.134,11.597,14.031,11.597c6.897,0,14.032-4.338,14.032-11.597c0-0.553,0.447-1,1-1s1,0.447,1,1
		C41.031,37.741,32.88,42.827,24.999,42.827z"/>
</g>
</svg>
