<?xml version="1.0" encoding="utf-8"?>
<!-- Generator: Adobe Illustrator 16.0.0, SVG Export Plug-In . SVG Version: 6.00 Build 0)  -->
<!DOCTYPE svg PUBLIC "-//W3C//DTD SVG 1.1//EN" "http://www.w3.org/Graphics/SVG/1.1/DTD/svg11.dtd">
<svg version="1.1" id="Capa_1" xmlns="http://www.w3.org/2000/svg" xmlns:xlink="http://www.w3.org/1999/xlink" x="0px" y="0px"
	 width="50px" height="50px" viewBox="0 0 50 50" enable-background="new 0 0 50 50" xml:space="preserve">
<g>
	<g transform="translate(1.000000, 4.000000)">
		<circle fill="#00B8D4" cx="38.014" cy="28.795" r="4.663"/>
		<circle fill="#00B8D4" cx="9.848" cy="28.795" r="4.663"/>
		<g>
			<path fill="none" d="M19.312,13.513c-0.611,1.671-1.815,4.359-1.815,4.359h9.677v-6.394h-4.639
				C21.659,11.478,19.897,11.889,19.312,13.513L19.312,13.513z"/>
			<path fill="none" d="M37.877,11.51h-7.755v6.362h12.787l-1.514-4.529C41.396,13.343,40.111,11.51,37.877,11.51L37.877,11.51z"/>
			<g>
				<path fill="none" d="M19.312,13.513c-0.611,1.671-1.815,4.359-1.815,4.359h9.677v-6.394h-4.639
					C21.659,11.478,19.897,11.889,19.312,13.513L19.312,13.513z"/>
				<path fill="none" d="M37.877,11.51h-7.755v6.362h12.787l-1.514-4.529C41.396,13.343,40.111,11.51,37.877,11.51L37.877,11.51z"/>
				<path fill="#00B8D4" d="M49,23.618c0-1.868-0.244-3.558-2.356-4.77l-1.831-6.178c0-1.224-2.864-4.187-6.397-4.187H21.894
					c-3.533,0-6.394,3.405-6.394,4.187l-2.704,5.202l-2.445,0.335c-6.315,0-9.602,3.84-9.602,7.536L-1,30.341h3.152
					c-0.113-0.522-0.176-1.064-0.176-1.621c0-4.318,3.527-7.818,7.884-7.818c4.353,0,7.88,3.5,7.88,7.818
					c0,0.557-0.063,1.099-0.175,1.621h12.751c-0.112-0.522-0.176-1.064-0.176-1.621c0-4.318,3.527-7.818,7.884-7.818
					c4.354,0,7.883,3.5,7.883,7.818c0,0.557-0.062,1.099-0.175,1.621H49V23.618L49,23.618z M27.171,17.872h-9.678
					c0,0,1.205-2.686,1.815-4.359c0.588-1.628,2.35-2.035,3.224-2.035h4.639V17.872L27.171,17.872z M30.125,17.872V11.51h7.755
					c2.235,0,3.518,1.833,3.518,1.833l1.516,4.529H30.125L30.125,17.872z"/>
			</g>
		</g>
	</g>
</g>
</svg>
