<?xml version="1.0" encoding="utf-8"?>
<!-- Generator: Adobe Illustrator 16.0.0, SVG Export Plug-In . SVG Version: 6.00 Build 0)  -->
<!DOCTYPE svg PUBLIC "-//W3C//DTD SVG 1.1//EN" "http://www.w3.org/Graphics/SVG/1.1/DTD/svg11.dtd">
<svg version="1.1" id="Capa_1" xmlns="http://www.w3.org/2000/svg" xmlns:xlink="http://www.w3.org/1999/xlink" x="0px" y="0px"
	 width="50px" height="50px" viewBox="0 0 50 50" enable-background="new 0 0 50 50" xml:space="preserve">
<g>
	<g transform="translate(0.000000, 3.000000)">
		<path fill="#00B8D4" d="M30.81,28.431c-1.325,1.788-5.745,2.252-5.745,2.252s-4.513-0.444-5.841-2.212
			c-6.374,0-9.704,9.156-9.704,9.156H40.61C40.61,37.624,37.985,28.431,30.81,28.431L30.81,28.431z"/>
		<path fill="#00B8D4" d="M31.085,15.479c0,3.317-2.76,9.653-6.155,9.653c-3.408,0-6.161-6.336-6.161-9.653
			c0-3.316,2.753-6.007,6.161-6.007C28.325,9.471,31.085,12.162,31.085,15.479L31.085,15.479z"/>
		<path fill="#00B8D4" d="M44.118,22.065c-1.162,1.801-4.783,2.76-4.783,2.76s-4.244-0.943-5.415-2.715c0,0-0.038,2.08-1.808,4.498
			c5.638-0.727,8.075,4.708,8.075,4.708l9.807,0.019C49.991,31.331,50.43,22.065,44.118,22.065L44.118,22.065z"/>
		<path fill="#00B8D4" d="M43.761,11.141c0,2.656-2.073,7.721-4.633,7.721c-2.568,0-4.639-5.065-4.639-7.721
			c0-2.65,2.077-4.802,4.639-4.802C41.688,6.339,43.761,8.494,43.761,11.141L43.761,11.141z"/>
		<path fill="#00B8D4" d="M5.949,22.065c1.184,1.788,4.852,2.741,4.852,2.741s4.3-0.938,5.475-2.697c0,0,0.044,2.067,1.835,4.466
			c-5.713-0.721-8.175,4.674-8.175,4.674l-9.929,0.016C0.007,31.266-0.441,22.065,5.949,22.065L5.949,22.065z"/>
		<path fill="#00B8D4" d="M6.212,11.244c0,2.594,2.08,7.552,4.632,7.552c2.565,0,4.636-4.958,4.636-7.552
			c0-2.596-2.073-4.701-4.636-4.701C8.286,6.542,6.212,8.647,6.212,11.244L6.212,11.244z"/>
	</g>
</g>
</svg>
