<?xml version="1.0" encoding="utf-8"?>
<!-- Generator: Adobe Illustrator 16.0.0, SVG Export Plug-In . SVG Version: 6.00 Build 0)  -->
<!DOCTYPE svg PUBLIC "-//W3C//DTD SVG 1.1//EN" "http://www.w3.org/Graphics/SVG/1.1/DTD/svg11.dtd">
<svg version="1.1" id="Capa_1" xmlns="http://www.w3.org/2000/svg" xmlns:xlink="http://www.w3.org/1999/xlink" x="0px" y="0px"
	 width="50px" height="50px" viewBox="0 0 50 50" enable-background="new 0 0 50 50" xml:space="preserve">
<g>
	<path fill="#00B8D4" d="M25.005,0C11.195,0,0.002,11.197,0.002,25c0,13.807,11.193,25,25.003,25c13.804,0,24.993-11.192,24.993-25
		C49.998,11.197,38.806,0,25.005,0L25.005,0z M34.507,11.037c3.489,0,6.306,2.862,6.306,6.402c0,3.531-2.816,6.402-6.306,6.402
		c-3.467,0-6.292-2.872-6.292-6.402C28.215,13.899,31.04,11.037,34.507,11.037L34.507,11.037z M15.617,11.037
		c3.477,0,6.299,2.868,6.299,6.402c0,3.534-2.822,6.402-6.299,6.402c-3.477,0-6.299-2.869-6.299-6.402
		C9.318,13.902,12.14,11.037,15.617,11.037L15.617,11.037z"/>
</g>
<g>
	<path fill="#FFFFFF" d="M25,28.23c7.881,0,16.031,3.328,16.031,8.898c0,0.362-0.447,0.655-1,0.655s-1-0.293-1-0.655
		c0-4.751-7.135-7.59-14.031-7.59c-6.897,0-14.032,2.839-14.032,7.59c0,0.362-0.447,0.655-1,0.655s-1-0.293-1-0.655
		C8.968,31.559,17.119,28.23,25,28.23z"/>
</g>
<rect x="13" y="7" transform="matrix(0.9183 0.396 -0.396 0.9183 4.4006 -6.3169)" fill="#FFFFFF" width="9" height="1"/>
<rect x="27" y="7" transform="matrix(-0.9182 0.396 -0.396 -0.9182 63.3948 1.9122)" fill="#FFFFFF" width="8.999" height="1"/>
</svg>
